<svg xmlns="http://www.w3.org/2000/svg" viewBox="0 0 1200 630" width="1200" height="630">
  <defs>
    <clipPath id="bounds"><rect width="1200" height="630"/></clipPath>
  </defs>

  <!-- Background -->
  <rect width="1200" height="630" fill="#0A0E1A"/>

  <!-- Grid -->
  <g clip-path="url(#bounds)" opacity="0.18">
    <line x1="0" y1="105" x2="1200" y2="105" stroke="#1E3A5F" stroke-width="1"/>
    <line x1="0" y1="210" x2="1200" y2="210" stroke="#1E3A5F" stroke-width="1"/>
    <line x1="0" y1="315" x2="1200" y2="315" stroke="#1E3A5F" stroke-width="1"/>
    <line x1="0" y1="420" x2="1200" y2="420" stroke="#1E3A5F" stroke-width="1"/>
    <line x1="0" y1="525" x2="1200" y2="525" stroke="#1E3A5F" stroke-width="1"/>
    <line x1="150" y1="0" x2="150" y2="630" stroke="#1E3A5F" stroke-width="1"/>
    <line x1="300" y1="0" x2="300" y2="630" stroke="#1E3A5F" stroke-width="1"/>
    <line x1="450" y1="0" x2="450" y2="630" stroke="#1E3A5F" stroke-width="1"/>
    <line x1="600" y1="0" x2="600" y2="630" stroke="#1E3A5F" stroke-width="1"/>
    <line x1="750" y1="0" x2="750" y2="630" stroke="#1E3A5F" stroke-width="1"/>
    <line x1="900" y1="0" x2="900" y2="630" stroke="#1E3A5F" stroke-width="1"/>
    <line x1="1050" y1="0" x2="1050" y2="630" stroke="#1E3A5F" stroke-width="1"/>
  </g>

  <!-- Glow circles top-right -->
  <ellipse cx="960" cy="160" rx="320" ry="320" fill="none" stroke="#0175C2" stroke-width="120" opacity="0.06"/>
  <ellipse cx="960" cy="160" rx="200" ry="200" fill="none" stroke="#00D2FF" stroke-width="60" opacity="0.05"/>

  <!-- Geometric decorations -->
  <polygon points="1080,480 1110,530 1050,530" fill="none" stroke="#0175C2" stroke-width="1.5" opacity="0.4"/>
  <polygon points="1130,390 1152,430 1108,430" fill="none" stroke="#00D2FF" stroke-width="1" opacity="0.3"/>
  <rect x="80" y="480" width="18" height="18" rx="3" fill="none" stroke="#0175C2" stroke-width="1.5" opacity="0.35" transform="rotate(20,89,489)"/>
  <rect x="110" y="510" width="10" height="10" rx="2" fill="none" stroke="#00D2FF" stroke-width="1" opacity="0.25" transform="rotate(10,115,515)"/>
  <circle cx="240" cy="560" r="5" fill="#00D2FF" opacity="0.2"/>
  <circle cx="1060" cy="580" r="3" fill="#00D2FF" opacity="0.25"/>
  <circle cx="1100" cy="560" r="6" fill="#0175C2" opacity="0.2"/>
  <circle cx="140" cy="540" r="3" fill="#0175C2" opacity="0.3"/>

  <!-- Top accent bar -->
  <rect x="0" y="0" width="1200" height="5" fill="#00D2FF" opacity="0.9"/>

  <!-- Language badge -->
  <rect x="72" y="72" width="110" height="28" rx="5" fill="#0175C2" fill-opacity="0.15" stroke="#0175C2" stroke-width="1" stroke-opacity="0.4"/>
  <text x="126" y="91" font-family="'Courier New', monospace" font-size="13" fill="#00D2FF" text-anchor="middle" opacity="0.9">dart • shelf</text>

  <!-- Main title -->
  <text x="120" y="260" font-family="Georgia, 'Times New Roman', serif" font-size="88" font-weight="700" fill="#FFFFFF" letter-spacing="-3">Dart</text>
  <text x="120" y="360" font-family="Georgia, 'Times New Roman', serif" font-size="88" font-weight="700" fill="#FFFFFF" letter-spacing="-3">Backend</text>
  <text x="120" y="456" font-family="Georgia, 'Times New Roman', serif" font-size="78" font-weight="700" fill="#00D2FF" letter-spacing="-2">Architecture</text>

  <!-- Divider -->
  <rect x="120" y="495" width="480" height="1.5" fill="#1E3A5F"/>

  <!-- Subtitles -->
  <text x="120" y="528" font-family="'Courier New', monospace" font-size="16" fill="#4A9ECC" letter-spacing="2">PostgreSQL • Redis • OpenTelemetry</text>
  <text x="120" y="560" font-family="'Courier New', monospace" font-size="13" fill="#2A5A7A" letter-spacing="1">Clean architecture • Single isolate • SQL-first</text>

  <!-- Network graph decoration -->
  <g opacity="0.5">
    <circle cx="820" cy="420" r="2.5" fill="#00D2FF"/>
    <circle cx="840" cy="400" r="1.5" fill="#0175C2"/>
    <circle cx="860" cy="435" r="2" fill="#00D2FF"/>
    <circle cx="880" cy="415" r="1.5" fill="#0175C2"/>
    <circle cx="900" cy="440" r="2" fill="#00D2FF"/>
    <line x1="820" y1="420" x2="840" y2="400" stroke="#0175C2" stroke-width="0.8"/>
    <line x1="840" y1="400" x2="860" y2="435" stroke="#0175C2" stroke-width="0.8"/>
    <line x1="860" y1="435" x2="880" y2="415" stroke="#00D2FF" stroke-width="0.8"/>
    <line x1="880" y1="415" x2="900" y2="440" stroke="#00D2FF" stroke-width="0.8"/>
    <line x1="820" y1="420" x2="860" y2="435" stroke="#1E3A5F" stroke-width="0.5"/>
    <line x1="840" y1="400" x2="880" y2="415" stroke="#1E3A5F" stroke-width="0.5"/>
  </g>

  <!-- Bottom accent bars -->
  <rect x="0" y="623" width="120" height="2" fill="#00D2FF" opacity="0.6"/>
  <rect x="1080" y="623" width="120" height="2" fill="#00D2FF" opacity="0.6"/>
</svg>
